<?xml version="1.0" encoding="iso-8859-1"?>
<!-- Uploaded to: SVG Repo, www.svgrepo.com, Generator: SVG Repo Mixer Tools -->
<svg version="1.1" id="Layer_1" xmlns="http://www.w3.org/2000/svg" xmlns:xlink="http://www.w3.org/1999/xlink" 
	 viewBox="0 0 512 512" xml:space="preserve">
<g>
	<rect x="358.003" y="118.726" style="fill:#FFE67B;" width="63.999" height="63.997"/>
	<path style="fill:#F9EACD;" d="M358.006,182.723h-80.675V75.592c0-11.223-9.181-20.403-20.406-20.403H63.07
		c-11.223,0-20.403,9.179-20.403,20.403v235.593h13.935c16.82-27.606,47.207-46.038,81.895-46.038
		c34.691,0,65.075,18.432,81.893,46.038h248.944v-42.82v-42.821V192.04c0-5.121-4.194-9.317-9.317-9.317h-38.013H358.006
		L358.006,182.723z M213.332,215.187H106.664v-106.67h106.668V215.187z"/>
	<rect x="106.662" y="108.518" style="fill:#9FDEE2;" width="106.672" height="106.672"/>
	<path style="fill:#7BA9D6;" d="M56.603,311.186H42.667H32c-11.734,0-21.332,9.6-21.332,21.337c0,11.732,9.598,21.332,21.332,21.332
		h10.93C44.071,338.308,48.921,323.789,56.603,311.186z"/>
	<path style="fill:#FFA233;" d="M138.497,398.059c-20.478,0-37.079-16.601-37.079-37.079c0-20.476,16.601-37.079,37.079-37.079
		c20.477,0,37.077,16.602,37.077,37.079C175.574,381.459,158.974,398.059,138.497,398.059L138.497,398.059z M138.497,265.148
		c-34.69,0-65.076,18.432-81.893,46.038c-7.681,12.603-12.535,27.122-13.673,42.669c-0.177,2.352-0.262,4.726-0.262,7.121
		c0,52.925,42.905,95.834,95.83,95.834c39.781,0,73.899-24.237,88.394-58.751c4.789-11.406,7.436-23.937,7.436-37.084
		c0-2.396-0.089-4.769-0.265-7.121c-1.139-15.546-5.992-30.066-13.671-42.669C203.572,283.581,173.188,265.148,138.497,265.148z"/>
	<circle style="fill:#FFE67B;" cx="138.493" cy="360.979" r="37.078"/>
	<path style="fill:#7BA9D6;" d="M293.079,339.306c14.824,0,28.363,5.489,38.7,14.549l40.103-0.004
		c10.337-9.054,23.879-14.545,38.7-14.545c14.825,0,28.364,5.489,38.7,14.549h30.716c11.734,0,21.334-9.6,21.334-21.337
		c0-11.732-9.6-21.332-21.334-21.332h-10.663H220.39c7.679,12.603,12.532,27.122,13.671,42.669h20.32
		C264.718,344.796,278.258,339.306,293.079,339.306z"/>
	<g>
		<path style="fill:#FFA233;" d="M331.778,353.855c-10.337-9.059-23.875-14.549-38.7-14.549c-14.822,0-28.363,5.489-38.696,14.549
			c-12.294,10.767-20.055,26.578-20.055,44.201c0,32.452,26.304,58.755,58.752,58.755c32.449,0,58.752-26.303,58.752-58.755
			C351.831,380.434,344.07,364.622,331.778,353.855z"/>
		<path style="fill:#FFA233;" d="M371.882,353.851c-12.29,10.772-20.051,26.583-20.051,44.204c0,32.452,26.303,58.755,58.751,58.755
			c32.451,0,58.753-26.303,58.753-58.755c0-17.622-7.76-33.433-20.053-44.201c-10.335-9.059-23.875-14.549-38.7-14.549
			C395.76,339.306,382.218,344.796,371.882,353.851z"/>
	</g>
</g>
<g>
	<path style="fill:#000003;" d="M512,332.519c0-17.645-14.354-31.997-31.997-32V192.04c0-11.019-8.965-19.984-19.984-19.984h-27.345
		v-43.065c4.498-1.252,7.802-5.369,7.802-10.265c0-5.892-4.776-10.667-10.667-10.667h-7.802h-63.999h-7.801
		c-5.892,0-10.667,4.776-10.667,10.667c0,4.896,3.304,9.013,7.801,10.265v43.065h-59.341V75.592c0-17.132-13.94-31.07-31.074-31.07
		H63.07C45.937,44.522,32,58.46,32,75.592v224.926c-17.645,0.001-32,14.356-32,32.005c0,17.645,14.355,32,32,32h0.064
		c1.877,57.089,48.896,102.956,106.432,102.956c36.966,0,69.589-18.936,88.693-47.615c9.166,27.626,35.228,47.615,65.89,47.615
		c24.721,0,46.451-12.999,58.753-32.51c12.301,19.511,34.03,32.51,58.75,32.51c38.279,0,69.422-31.143,69.422-69.422
		c0-12.155-3.15-23.586-8.664-33.533h8.658C497.645,364.522,512,350.168,512,332.519z M490.666,332.523
		c0,5.88-4.784,10.665-10.667,10.665h-26.892c-4.71-3.655-9.849-6.654-15.271-8.969c-0.272-0.116-0.548-0.227-0.822-0.339
		c-0.67-0.277-1.342-0.544-2.019-0.798c-0.395-0.148-0.789-0.291-1.187-0.433c-0.569-0.202-1.139-0.396-1.714-0.581
		c-0.457-0.15-0.912-0.3-1.373-0.439c-0.536-0.162-1.074-0.31-1.613-0.459c-0.484-0.135-0.965-0.277-1.454-0.4
		c-0.938-0.238-1.882-0.457-2.829-0.656c-0.497-0.102-1.001-0.188-1.501-0.282c-0.547-0.102-1.093-0.206-1.643-0.296
		c-0.498-0.079-0.998-0.148-1.498-0.217c-0.581-0.081-1.166-0.158-1.752-0.225c-0.465-0.052-0.931-0.102-1.398-0.144
		c-0.68-0.065-1.358-0.112-2.04-0.156c-0.385-0.025-0.771-0.054-1.158-0.073c-1.082-0.05-2.163-0.081-3.25-0.081
		c-1.086,0-2.169,0.031-3.248,0.081c-0.389,0.019-0.774,0.048-1.161,0.073c-0.681,0.044-1.358,0.092-2.035,0.156
		c-0.469,0.042-0.938,0.092-1.404,0.146c-0.583,0.064-1.164,0.142-1.744,0.221c-0.502,0.07-1.006,0.14-1.506,0.221
		c-0.542,0.087-1.082,0.19-1.619,0.289c-0.51,0.096-1.02,0.181-1.524,0.288c-0.945,0.198-1.885,0.415-2.818,0.652
		c-0.502,0.127-0.998,0.273-1.496,0.411c-0.523,0.146-1.045,0.289-1.565,0.446c-0.473,0.144-0.94,0.298-1.408,0.45
		c-0.56,0.183-1.118,0.371-1.673,0.569c-0.41,0.144-0.817,0.293-1.222,0.446c-0.66,0.247-1.315,0.511-1.969,0.778
		c-0.29,0.121-0.581,0.238-0.87,0.361c-5.417,2.315-10.549,5.312-15.255,8.963h-32.458c-4.71-3.652-9.846-6.652-15.268-8.967
		c-0.277-0.118-0.557-0.231-0.835-0.346c-0.665-0.273-1.333-0.54-2.007-0.792c-0.397-0.15-0.796-0.296-1.197-0.437
		c-0.564-0.201-1.132-0.391-1.702-0.577c-0.46-0.15-0.92-0.302-1.384-0.444c-0.53-0.16-1.065-0.306-1.599-0.454
		c-0.487-0.135-0.973-0.279-1.467-0.404c-0.936-0.238-1.878-0.454-2.825-0.652c-0.5-0.107-1.005-0.192-1.508-0.286
		c-0.545-0.102-1.089-0.204-1.636-0.291c-0.497-0.081-1-0.15-1.499-0.219c-0.582-0.081-1.165-0.158-1.75-0.223
		c-0.465-0.054-0.932-0.105-1.401-0.146c-0.677-0.065-1.357-0.112-2.037-0.156c-0.386-0.025-0.771-0.054-1.16-0.073
		c-1.081-0.05-2.162-0.081-3.249-0.081c-1.087,0-2.169,0.031-3.249,0.081c-0.387,0.019-0.773,0.048-1.161,0.073
		c-0.68,0.044-1.358,0.092-2.035,0.156c-0.469,0.042-0.937,0.092-1.403,0.146c-0.585,0.064-1.166,0.142-1.747,0.221
		c-0.501,0.07-1.004,0.14-1.502,0.221c-0.544,0.087-1.086,0.19-1.628,0.291c-0.506,0.094-1.014,0.179-1.517,0.286
		c-0.945,0.198-1.886,0.415-2.821,0.652c-0.499,0.127-0.99,0.271-1.484,0.409c-0.528,0.146-1.055,0.291-1.581,0.45
		c-0.468,0.142-0.932,0.293-1.398,0.446c-0.562,0.186-1.125,0.373-1.683,0.571c-0.406,0.146-0.811,0.293-1.215,0.444
		c-0.665,0.25-1.323,0.513-1.979,0.783c-0.288,0.118-0.575,0.234-0.861,0.354c-5.418,2.315-10.552,5.315-15.258,8.965h-7.055
		c-0.006-0.035-0.013-0.068-0.019-0.105c-1.071-6.296-2.691-12.409-4.819-18.28c-0.048-0.133-0.092-0.267-0.14-0.398
		c-0.017-0.046-0.035-0.09-0.052-0.133c-0.295-0.811-0.601-1.617-0.916-2.419h231.778h10.663
		C485.88,321.854,490.666,326.637,490.666,332.523z M274.331,353.779c0.142-0.061,0.288-0.114,0.432-0.173
		c0.53-0.221,1.064-0.433,1.603-0.634c0.315-0.116,0.634-0.225,0.953-0.334c0.375-0.131,0.75-0.262,1.131-0.383
		c0.381-0.123,0.764-0.234,1.147-0.346c0.327-0.096,0.654-0.192,0.986-0.282c0.408-0.109,0.817-0.21,1.227-0.31
		c0.319-0.077,0.638-0.15,0.958-0.221c0.415-0.092,0.829-0.177,1.246-0.256c0.334-0.064,0.67-0.123,1.006-0.181
		c0.404-0.069,0.808-0.133,1.213-0.192c0.373-0.054,0.75-0.1,1.125-0.144c0.373-0.046,0.746-0.092,1.121-0.127
		c0.455-0.044,0.914-0.075,1.373-0.105c0.302-0.021,0.604-0.048,0.907-0.063c0.77-0.037,1.544-0.059,2.322-0.059
		s1.553,0.021,2.322,0.059c0.302,0.015,0.603,0.042,0.905,0.063c0.461,0.029,0.921,0.061,1.377,0.105
		c0.373,0.035,0.745,0.081,1.117,0.127c0.377,0.044,0.754,0.09,1.13,0.144c0.404,0.059,0.806,0.123,1.209,0.192
		c0.337,0.059,0.675,0.116,1.011,0.181c0.415,0.079,0.828,0.164,1.238,0.254c0.325,0.07,0.647,0.148,0.969,0.225
		c0.407,0.098,0.813,0.198,1.217,0.308c0.336,0.09,0.669,0.188,1.002,0.284c0.378,0.11,0.755,0.221,1.13,0.341
		c0.389,0.123,0.775,0.258,1.16,0.391c0.307,0.109,0.618,0.21,0.923,0.323c0.558,0.208,1.109,0.429,1.659,0.656
		c0.126,0.052,0.253,0.098,0.378,0.153c14.051,5.969,24.687,18.443,28.137,33.615h-93.76
		C249.65,372.222,260.282,359.751,274.331,353.779z M368.673,129.393h42.665v42.662h-42.665V129.393z M53.334,75.592
		c0-5.369,4.367-9.736,9.736-9.736h193.855c5.37,0,9.739,4.367,9.739,9.736v107.131c0,5.889,4.776,10.667,10.667,10.667h80.675
		h63.999h36.662v21.487h-36.843c-5.893,0-10.667,4.776-10.667,10.667c0,5.889,4.775,10.667,10.667,10.667h36.844v21.487h-36.844
		c-5.893,0-10.667,4.776-10.667,10.667c0,5.889,4.775,10.667,10.667,10.667h36.844v21.486H226.185
		c-17.823-25.901-45.605-42.304-76.639-45.467c-0.089-0.009-0.176-0.019-0.263-0.027c-0.688-0.068-1.377-0.129-2.067-0.183
		c-0.378-0.031-0.757-0.061-1.136-0.087c-0.541-0.037-1.081-0.073-1.621-0.102c-0.577-0.033-1.157-0.057-1.738-0.079
		c-0.398-0.015-0.796-0.035-1.194-0.046c-1.007-0.027-2.017-0.046-3.029-0.046c-0.986,0-1.969,0.017-2.948,0.044
		c-0.414,0.011-0.824,0.031-1.235,0.046c-0.544,0.021-1.088,0.042-1.629,0.07c-0.566,0.031-1.132,0.068-1.697,0.109
		c-0.345,0.025-0.69,0.048-1.035,0.075c-0.715,0.057-1.427,0.121-2.139,0.19c-0.126,0.015-0.251,0.027-0.378,0.039
		c-29.597,3.021-56.24,18.086-74.102,41.948V75.592z M21.334,332.519c0-5.882,4.785-10.665,10.665-10.665h7.436
		c-0.461,1.169-0.894,2.35-1.312,3.536c-0.195,0.546-0.389,1.091-0.575,1.642c-0.025,0.073-0.048,0.146-0.071,0.219
		c-1.145,3.421-2.117,6.919-2.914,10.484c-0.003,0.011-0.005,0.022-0.007,0.035c-0.192,0.861-0.373,1.723-0.544,2.59
		c-0.02,0.098-0.038,0.197-0.059,0.295c-0.148,0.767-0.289,1.536-0.421,2.306c-0.013,0.075-0.029,0.15-0.042,0.227h-1.489
		C26.12,343.188,21.334,338.402,21.334,332.519z M138.497,446.143c-46.958,0-85.163-38.206-85.163-85.167
		c0-2.883,0.148-5.736,0.429-8.549c0.006-0.063,0.011-0.127,0.017-0.192c0.13-1.269,0.295-2.527,0.481-3.779
		c0.037-0.247,0.073-0.496,0.111-0.743c0.188-1.185,0.398-2.363,0.634-3.534c0.058-0.284,0.118-0.566,0.179-0.85
		c0.249-1.176,0.512-2.344,0.81-3.498c0.031-0.123,0.066-0.244,0.097-0.365c0.3-1.143,0.625-2.28,0.969-3.404
		c0.063-0.201,0.121-0.4,0.183-0.597c0.385-1.227,0.796-2.442,1.235-3.644c0.025-0.07,0.051-0.14,0.077-0.208
		c11.473-31.133,40.64-53.769,75.242-55.662c0.243-0.013,0.486-0.022,0.731-0.033c1.315-0.063,2.638-0.102,3.969-0.102
		s2.653,0.039,3.97,0.102c0.243,0.011,0.486,0.021,0.729,0.033c34.578,1.891,63.727,24.497,75.218,55.594
		c0.041,0.111,0.082,0.219,0.122,0.33c0.426,1.167,0.824,2.346,1.199,3.535c0.078,0.247,0.151,0.498,0.228,0.748
		c0.317,1.04,0.617,2.088,0.894,3.144c0.065,0.243,0.129,0.487,0.192,0.731c0.269,1.058,0.512,2.125,0.739,3.198
		c0.073,0.337,0.146,0.675,0.213,1.014c0.225,1.125,0.428,2.256,0.608,3.396c0.048,0.304,0.091,0.608,0.137,0.91
		c0.176,1.202,0.336,2.411,0.463,3.629c0.014,0.14,0.022,0.279,0.036,0.419c0.27,2.756,0.416,5.548,0.416,8.376
		c0,9.222-1.491,18.095-4.214,26.416h-41.201c5.048-7.569,7.998-16.653,7.998-26.416c0-26.325-21.42-47.742-47.746-47.742
		c-26.328,0-47.746,21.418-47.746,47.742c0,26.272,21.329,47.653,47.58,47.742c0.055,0.002,0.11,0.009,0.165,0.009h70.48
		C193.643,431.29,167.773,446.143,138.497,446.143z M138.497,387.388c-14.563,0-26.412-11.848-26.412-26.412
		c0-14.561,11.848-26.408,26.412-26.408c14.564,0,26.412,11.846,26.412,26.408C164.909,375.54,153.06,387.388,138.497,387.388z
		 M293.079,446.143c-22.846,0-42.008-16.022-46.876-37.416h93.755C335.088,430.122,315.926,446.143,293.079,446.143z
		 M410.581,446.143c-22.845,0-42.006-16.022-46.875-37.416h46.875c5.892,0,10.667-4.776,10.667-10.667
		c0-5.89-4.776-10.667-10.667-10.667h-46.877c3.45-15.17,14.082-27.641,28.128-33.612c0.147-0.063,0.298-0.116,0.446-0.179
		c0.525-0.217,1.054-0.429,1.589-0.627c0.318-0.118,0.64-0.225,0.958-0.336c0.374-0.131,0.746-0.26,1.124-0.381
		c0.382-0.123,0.768-0.236,1.153-0.348c0.325-0.096,0.65-0.19,0.979-0.279c0.409-0.109,0.819-0.21,1.231-0.31
		c0.317-0.077,0.636-0.15,0.955-0.221c0.416-0.092,0.831-0.177,1.25-0.256c0.332-0.064,0.667-0.123,1.003-0.181
		c0.404-0.069,0.809-0.133,1.216-0.192c0.372-0.054,0.747-0.1,1.122-0.144c0.374-0.046,0.748-0.092,1.123-0.127
		c0.454-0.044,0.912-0.075,1.372-0.105c0.303-0.021,0.604-0.048,0.908-0.063c0.769-0.037,1.542-0.059,2.321-0.059
		c0.779,0,1.553,0.021,2.323,0.059c0.302,0.015,0.603,0.042,0.904,0.061c0.461,0.031,0.921,0.063,1.378,0.107
		c0.373,0.035,0.743,0.081,1.115,0.127c0.379,0.044,0.756,0.09,1.132,0.144c0.403,0.059,0.804,0.123,1.206,0.192
		c0.339,0.059,0.677,0.116,1.014,0.181c0.413,0.079,0.825,0.164,1.235,0.254c0.326,0.07,0.65,0.148,0.973,0.225
		c0.406,0.098,0.811,0.198,1.213,0.306c0.337,0.092,0.673,0.19,1.007,0.288c0.377,0.111,0.752,0.219,1.125,0.337
		c0.39,0.125,0.777,0.26,1.164,0.396c0.306,0.107,0.614,0.208,0.918,0.321c0.56,0.208,1.114,0.429,1.665,0.658
		c0.123,0.05,0.247,0.098,0.371,0.15c17.23,7.319,29.346,24.41,29.346,44.277C458.669,424.571,437.098,446.143,410.581,446.143z"/>
	<path style="fill:#000003;" d="M390.926,279.036h0.253c5.892,0,10.667-4.778,10.667-10.667c0-5.891-4.776-10.667-10.667-10.667
		h-0.253c-5.89,0-10.667,4.776-10.667,10.667C380.259,274.259,385.034,279.036,390.926,279.036z"/>
	<path style="fill:#000003;" d="M171.978,160.538c2.712,0,5.425-1.029,7.504-3.088l0.521-0.514
		c4.187-4.146,4.221-10.899,0.075-15.087c-4.144-4.186-10.898-4.221-15.086-0.075l-0.521,0.514
		c-4.187,4.146-4.22,10.899-0.076,15.087C166.482,159.482,169.23,160.538,171.978,160.538z"/>
	<path style="fill:#000003;" d="M96.049,216.24c0.017,0.16,0.046,0.315,0.068,0.473c0.027,0.188,0.048,0.375,0.085,0.56
		c0.035,0.177,0.084,0.352,0.129,0.527c0.039,0.162,0.075,0.325,0.125,0.485c0.052,0.171,0.116,0.337,0.177,0.507
		c0.057,0.16,0.11,0.321,0.175,0.477c0.065,0.158,0.142,0.31,0.214,0.465c0.076,0.16,0.148,0.323,0.233,0.481
		c0.079,0.148,0.17,0.289,0.255,0.433c0.093,0.155,0.181,0.313,0.282,0.463c0.107,0.158,0.223,0.306,0.336,0.459
		c0.095,0.127,0.183,0.256,0.285,0.381c0.223,0.269,0.457,0.527,0.702,0.776c0.002,0.002,0.003,0.004,0.005,0.006
		c0.005,0.006,0.013,0.011,0.018,0.017c0.244,0.242,0.498,0.47,0.765,0.689c0.121,0.1,0.25,0.188,0.375,0.282
		c0.155,0.114,0.304,0.234,0.463,0.339c0.15,0.1,0.304,0.186,0.459,0.277c0.146,0.087,0.288,0.179,0.437,0.26
		c0.156,0.083,0.317,0.153,0.475,0.227c0.156,0.075,0.31,0.155,0.47,0.219c0.155,0.065,0.313,0.116,0.468,0.173
		c0.172,0.061,0.341,0.127,0.516,0.181c0.158,0.046,0.317,0.081,0.477,0.121c0.177,0.046,0.353,0.096,0.535,0.131
		c0.185,0.037,0.371,0.059,0.558,0.085c0.156,0.022,0.313,0.052,0.473,0.068c0.349,0.033,0.7,0.052,1.052,0.052h106.668
		c5.892,0,10.667-4.776,10.667-10.667v-106.67c0-5.889-4.776-10.667-10.667-10.667H106.664c-5.892,0-10.667,4.778-10.667,10.667
		v106.67l0,0C95.996,215.54,96.016,215.89,96.049,216.24z M202.664,119.184v85.336h-70.249l24.866-24.866
		c4.166-4.167,4.164-10.921,0-15.087c-4.167-4.164-10.92-4.164-15.087,0l-24.864,24.866v-70.249L202.664,119.184L202.664,119.184z"
		/>
</g>
</svg>